<?xml version="1.0" encoding="UTF-8" standalone="no"?>
<!-- Created with Inkscape (http://www.inkscape.org/) -->

<svg
   xmlns:dc="http://purl.org/dc/elements/1.1/"
   xmlns:cc="http://creativecommons.org/ns#"
   xmlns:rdf="http://www.w3.org/1999/02/22-rdf-syntax-ns#"
   xmlns:svg="http://www.w3.org/2000/svg"
   xmlns="http://www.w3.org/2000/svg"
   xmlns:sodipodi="http://sodipodi.sourceforge.net/DTD/sodipodi-0.dtd"
   xmlns:inkscape="http://www.inkscape.org/namespaces/inkscape"
   width="52.738007mm"
   height="41.613209mm"
   viewBox="0 0 52.738005 41.613208"
   version="1.1"
   id="svg8"
   inkscape:version="0.92.1 r15371"
   sodipodi:docname="logo.svg">
  <defs
     id="defs2" />
  <sodipodi:namedview
     id="base"
     pagecolor="#ffffff"
     bordercolor="#666666"
     borderopacity="1.0"
     inkscape:pageopacity="0.0"
     inkscape:pageshadow="2"
     inkscape:zoom="0.35"
     inkscape:cx="-287.71391"
     inkscape:cy="369.14115"
     inkscape:document-units="mm"
     inkscape:current-layer="layer1"
     showgrid="false"
     inkscape:window-width="1920"
     inkscape:window-height="1057"
     inkscape:window-x="-8"
     inkscape:window-y="-8"
     inkscape:window-maximized="1" />
  <metadata
     id="metadata5">
    <rdf:RDF>
      <cc:Work
         rdf:about="">
        <dc:format>image/svg+xml</dc:format>
        <dc:type
           rdf:resource="http://purl.org/dc/dcmitype/StillImage" />
        <dc:title />
      </cc:Work>
    </rdf:RDF>
  </metadata>
  <g
     inkscape:label="Layer 1"
     inkscape:groupmode="layer"
     id="layer1"
     transform="translate(-59.115375,-204.88872)">
    <path
       id="ellipse4527"
       style="opacity:1;fill:#a5a5a5;fill-opacity:0.50753766;fill-rule:nonzero;stroke:none;stroke-width:0.13229164;stroke-linejoin:round;stroke-miterlimit:4;stroke-dasharray:none;stroke-opacity:1"
       d="m 111.85338,231.20124 a 21.439377,15.300632 0 0 1 -21.439363,15.30069 21.439377,15.300632 0 0 1 -21.439409,-15.30069 21.439377,15.300632 0 0 1 21.439409,-15.3005 21.439377,15.300632 0 0 1 21.439363,15.3005 z m -1.83782,-11.01197 A 21.439377,15.300632 0 0 1 88.576356,235.48974 21.439377,15.300632 0 0 1 67.13695,220.18927 21.439377,15.300632 0 0 1 88.576356,204.88872 21.439377,15.300632 0 0 1 110.01556,220.18927 Z m -1.63333,8.90018 a 21.439377,15.300632 0 0 1 -21.439426,15.30049 21.439377,15.300632 0 0 1 -21.439332,-15.30049 21.439377,15.300632 0 0 1 21.439332,-15.30048 21.439377,15.300632 0 0 1 21.439426,15.30048 z m -0.61263,-6.33593 A 21.439377,15.300632 0 0 1 86.330316,238.05446 21.439377,15.300632 0 0 1 64.890917,222.75352 21.439377,15.300632 0 0 1 86.330316,207.45307 21.439377,15.300632 0 0 1 107.7696,222.75352 Z m -5.77557,2.80179 a 21.439377,15.300632 0 0 1 -21.439281,15.30063 21.439377,15.300632 0 0 1 -21.439374,-15.30063 21.439377,15.300632 0 0 1 21.439374,-15.3008 21.439377,15.300632 0 0 1 21.439281,15.3008 z"
       inkscape:connector-curvature="0" />
    <g
       id="g4566"
       transform="matrix(0.5876887,0,0,0.5876887,24.373947,101.63556)"
       style="stroke-width:1.70158112">
      <g
         aria-label="Wear"
         transform="matrix(0.26458333,0,0,0.26458333,464.15476,130.02382)"
         style="font-style:normal;font-weight:normal;font-size:27.5px;line-height:125%;font-family:sans-serif;letter-spacing:0px;word-spacing:0px;fill:#000000;fill-opacity:1;stroke:none;stroke-width:1.70158112px;stroke-linecap:butt;stroke-linejoin:miter;stroke-opacity:1"
         id="flowRoot4505">
        <path
           d="m -1386.5132,331.10973 q -1.3607,0.78794 -4.6202,1.5321 2.5474,7.22262 2.5474,13.6574 0,13.08829 -7.2871,22.41219 -7.2283,9.32366 -16.3528,9.32366 -7.1704,0 -11.6726,-5.55905 -4.6822,5.64665 -11.7904,5.64665 -7.7619,0 -13.2723,-6.21581 -5.5095,-6.25972 -5.5095,-15.75856 0,-14.22649 14.1012,-29.76612 -2.1937,0.52526 -4.7411,0.52526 -4.8589,0 -12.6797,-3.06422 -6.1031,-2.40744 -9.065,-2.40744 -3.3763,0 -5.6298,1.83851 -2.2497,1.83843 -2.2497,4.46478 0,2.1888 2.0145,3.72085 2.0136,1.53215 4.7994,1.53215 2.5478,0 4.2657,-1.31324 1.7774,-1.31325 1.7774,-3.06424 0,-0.39394 -0.2383,-1.3569 l 1.4826,-0.35025 q 1.185,1.2257 1.185,3.32679 0,2.67014 -2.3107,4.33361 -2.3105,1.66344 -5.807,1.66344 -4.0288,0 -6.8145,-2.18874 -2.7834,-2.18864 -2.7834,-5.69059 0,-4.42102 4.2655,-7.26641 4.2663,-2.84531 11.1394,-2.84531 2.7249,0 5.6287,0.61286 2.9037,0.61285 7.2282,2.84527 4.3842,2.18872 6.6963,2.18872 3.435,0 8.5915,-3.98346 l 1.2436,0.91928 q -14.2205,13.56987 -14.2205,34.05593 0,9.49891 3.6142,14.92677 3.6734,5.42807 9.3627,5.42807 3.3163,0 6.0431,-1.88227 2.7242,-1.92608 2.7242,-4.02724 v -33.79328 l 6.9914,-2.71403 v 34.6251 q 0,3.67692 2.1328,5.90945 2.1343,2.23239 5.3927,2.23239 6.6943,0 12.1461,-7.57285 5.4511,-7.57274 5.4511,-18.25368 0,-8.5796 -4.6819,-16.02111 h -0.414 q -9.1242,0 -14.4561,-2.97661 -5.2743,-3.02047 -5.2743,-7.1789 0,-2.23245 1.8961,-3.58948 1.896,-1.40072 4.9762,-1.40072 5.2732,0 10.0733,3.1517 4.8589,3.15171 8.5326,9.19249 h 0.1173 q 1.1263,0 4.2074,-1.48834 z m -12.1457,0.83172 q -6.2787,-8.97362 -12.0282,-8.97362 -2.7831,0 -2.7831,2.32001 0,2.32 3.9685,4.50868 3.971,2.14493 9.6584,2.14493 z"
           style="font-style:normal;font-variant:normal;font-weight:normal;font-stretch:normal;font-size:192px;font-family:'French Script MT';-inkscape-font-specification:'French Script MT';stroke-width:1.70158076px"
           id="path4568"
           inkscape:connector-curvature="0" />
        <path
           d="m -1351.4954,370.11207 q -3.4956,4.20226 -7.6431,6.12838 -4.1485,1.88223 -10.9022,1.88223 -4.9186,0 -7.8224,-2.14487 -2.842,-2.18872 -2.842,-6.12831 0,-1.05058 0.2359,-2.23255 -2.1319,2.01363 -3.2572,3.23935 l -1.9561,-1.0068 q 7.7016,-8.05444 11.8501,-10.54955 4.1472,-2.53881 8.5325,-2.53881 2.4295,0 3.9687,1.05059 1.5996,1.05058 1.5996,2.71389 0,5.69072 -13.5676,11.20604 1.8375,3.15182 7.6428,3.15182 2.786,0 6.1618,-1.48835 3.4367,-1.48826 6.2215,-4.33358 z m -22.9291,-0.0869 q 9.834,-3.5457 9.834,-7.87928 0,-1.31311 -1.0073,-2.14489 -0.9473,-0.83166 -2.6066,-0.83166 -3.0223,0 -5.0948,2.05733 -2.0744,2.05738 -2.0744,4.94648 0,1.57577 0.474,2.67011 0.4751,1.05069 0.4751,1.18191 z"
           style="font-style:normal;font-variant:normal;font-weight:normal;font-stretch:normal;font-size:192px;font-family:'French Script MT';-inkscape-font-specification:'French Script MT';stroke-width:1.70158076px"
           id="path4570"
           inkscape:connector-curvature="0" />
        <path
           d="m -1309.6651,370.11207 q -6.7545,7.79182 -13.2125,7.79182 -2.4294,0 -3.4953,-0.96311 -1.067,-0.96297 -1.1261,-4.0271 -3.5554,3.23926 -6.0431,4.2022 -2.4295,1.0068 -5.5705,1.0068 -4.5623,0 -7.2868,-2.3199 -2.6668,-2.32013 -2.6668,-6.21592 v -1.88234 q -0.6523,0.61291 -3.0216,3.15178 l -1.9559,-1.0068 q 5.2159,-5.95331 10.9611,-9.32388 5.8072,-3.41424 10.133,-3.41424 3.0801,0 6.1017,1.35692 l 5.2142,-1.96981 v 14.88303 q 0,2.36389 0.2969,2.84524 0.2957,0.48153 1.5991,0.48153 1.1257,0 3.3761,-1.48819 2.2532,-1.48844 4.9187,-4.24615 z m -17.9527,-0.52521 v -8.79849 q -2.3696,-1.79478 -5.6888,-1.79478 -3.5545,0 -6.3978,2.45133 -2.8451,2.45127 -2.8451,6.08461 0,3.15165 2.0155,4.90264 2.0149,1.70718 5.51,1.70718 2.7258,0 5.0366,-1.96993 2.3696,-2.01355 2.3696,-2.58256 z"
           style="font-style:normal;font-variant:normal;font-weight:normal;font-stretch:normal;font-size:192px;font-family:'French Script MT';-inkscape-font-specification:'French Script MT';stroke-width:1.70158076px"
           id="path4572"
           inkscape:connector-curvature="0" />
        <path
           d="m -1280.6918,370.11207 q -6.6949,7.79182 -13.4498,7.79182 -6.9328,0 -6.9328,-5.82188 0,-4.72762 6.1024,-10.28695 -1.0655,0.17516 -3.7912,0.17516 -1.7774,0 -3.7318,-0.5253 -3.0216,4.85889 -7.9995,9.49883 l -1.8367,-1.09425 q 5.5707,-5.95331 9.7176,-13.52608 5.6873,1.96984 8.9451,1.96984 3.0814,0 5.3332,-1.79477 l 1.0083,0.52534 q -3.6143,3.32681 -5.808,6.74111 -2.1913,3.37057 -2.1913,7.44157 0,1.26952 1.1256,2.40751 1.1246,1.09427 2.4882,1.09427 2.2517,0 4.3258,-1.35688 2.0736,-1.35696 4.9175,-4.28986 z"
           style="font-style:normal;font-variant:normal;font-weight:normal;font-stretch:normal;font-size:192px;font-family:'French Script MT';-inkscape-font-specification:'French Script MT';stroke-width:1.70158076px"
           id="path4574"
           inkscape:connector-curvature="0" />
      </g>
      <g
         aria-label="CJ's"
         transform="matrix(0.1672162,0,0,0.1235391,337.13049,148.47393)"
         style="font-style:normal;font-weight:normal;font-size:27.5px;line-height:125%;font-family:sans-serif;letter-spacing:0px;word-spacing:0px;fill:#000000;fill-opacity:1;stroke:none;stroke-width:3.13237405px;stroke-linecap:butt;stroke-linejoin:miter;stroke-opacity:1"
         id="flowRoot4519">
        <path
           d="m -1418.8477,409.92789 q -6.9375,10.6875 -16.0312,15.375 -9,4.59375 -22.9688,4.59375 -22.5937,0 -36.2812,-13.875 -13.5938,-13.875 -13.5938,-36.46875 0,-19.03125 9.6563,-37.125 9.75,-18.09375 25.5,-29.0625 15.8437,-10.96875 31.7812,-10.96875 11.625,0 18.375,6.46875 6.8438,6.46875 6.8438,17.71875 0,16.5 -11.9063,29.625 -11.9062,13.03125 -25.7812,13.03125 -7.0313,0 -11.5313,-4.3125 -4.4062,-4.3125 -4.4062,-11.25 0,-11.0625 12.4687,-20.8125 l 1.9688,2.34375 q -6.75,4.40625 -6.75,13.875 0,5.8125 3.9375,9.5625 4.0312,3.65625 10.125,3.65625 9.4687,0 16.7812,-8.15625 7.4063,-8.25 7.4063,-19.875 0,-11.25 -6.9375,-18.09375 -6.9375,-6.84375 -18.2813,-6.84375 -18.9375,0 -33.5625,17.71875 -14.625,17.71875 -14.625,42.5625 0,22.875 13.0313,38.15625 13.125,15.1875 33.0937,15.1875 9.9375,0 16.5,-3.46875 6.6563,-3.5625 12.0938,-11.90625 z"
           style="font-style:normal;font-variant:normal;font-weight:normal;font-stretch:normal;font-size:192px;font-family:'French Script MT';-inkscape-font-specification:'French Script MT';stroke-width:3.13237405px"
           id="path4577"
           inkscape:connector-curvature="0" />
        <path
           d="m -1359.2227,345.42789 q 3.2813,-2.34375 7.875,-2.34375 7.0313,0 11.4375,4.96875 4.5,4.875 4.5,12.84375 0,20.8125 -23.625,29.8125 5.625,21.1875 5.625,37.78125 0,24.5625 -13.0312,39.5625 -12.9375,15 -31.125,15 -12.5625,0 -20.625,-7.40625 -7.9688,-7.40625 -7.9688,-19.125 0,-9.9375 6.6563,-16.6875 6.75,-6.65625 15.375,-6.65625 7.4062,0 12.8437,4.78125 5.4375,4.875 5.4375,11.71875 0,6.375 -4.4062,10.96875 -4.3125,4.59375 -11.7188,4.59375 l -0.8437,-2.71875 q 8.4375,-2.25 8.4375,-10.78125 0,-5.15625 -3.4688,-8.4375 -3.4687,-3.28125 -8.8125,-3.28125 -6.4687,0 -10.7812,5.0625 -4.3125,5.15625 -4.3125,12.46875 0,9.09375 7.0312,15.28125 7.125,6.1875 17.7188,6.1875 14.1562,0 22.9687,-11.71875 8.9063,-11.625 8.9063,-31.5 0,-12.84375 -5.8125,-42.5625 -17.9063,-0.1875 -27.375,-8.625 -9.4688,-8.53125 -9.4688,-24.09375 0,-21.75 19.7813,-39.75 19.7812,-18 45.9375,-19.125 l 0.9375,2.4375 q -23.0625,11.625 -23.0625,46.125 0,15.46875 4.5937,36.84375 7.5,-2.4375 11.625,-8.71875 4.125,-6.375 4.125,-14.15625 0,-7.3125 -3.6562,-12.1875 -3.5625,-4.875 -8.4375,-4.875 h -2.25 z m 8.8125,-39.5625 q -20.9062,3.75 -33.5625,19.5 -12.6562,15.75 -12.6562,34.40625 0,27.1875 25.125,29.4375 -2.4375,-19.21875 -2.4375,-26.71875 0,-35.4375 23.5312,-56.625 z"
           style="font-style:normal;font-variant:normal;font-weight:normal;font-stretch:normal;font-size:192px;font-family:'French Script MT';-inkscape-font-specification:'French Script MT';stroke-width:3.13237405px"
           id="path4579"
           inkscape:connector-curvature="0" />
        <path
           d="m -1322.9414,343.08414 -3.4688,-28.40625 q -0.75,-6.5625 -0.75,-9.1875 0,-3.65625 1.5938,-6 1.6875,-2.4375 4.3125,-2.4375 5.8125,0 5.8125,8.4375 0,3.9375 -0.75,9.5625 l -3.8438,28.03125 z"
           style="font-style:normal;font-variant:normal;font-weight:normal;font-stretch:normal;font-size:192px;font-family:'French Script MT';-inkscape-font-specification:'French Script MT';stroke-width:3.13237405px"
           id="path4581"
           inkscape:connector-curvature="0" />
        <path
           d="m -1286.7539,381.70914 q 7.3125,3.75 11.7187,10.96875 4.4063,7.21875 4.4063,14.53125 0,8.71875 -5.1563,15.1875 -5.0625,6.46875 -13.0312,6.46875 -3.9375,0 -8.5313,-2.625 -4.5937,-2.625 -7.9687,-7.6875 2.9062,-4.5 8.4375,-7.6875 l 0.75,0.9375 q -0.1875,0.9375 -0.1875,2.71875 0,4.03125 2.8125,7.21875 2.8125,3.09375 6.375,3.09375 4.4062,0 7.2187,-3.65625 2.8125,-3.75 2.8125,-9.375 0,-11.625 -13.875,-20.71875 l -7.9687,12.5625 q -4.7813,7.6875 -6.9375,10.3125 l -2.9063,-2.34375 q 9.5625,-14.15625 19.0313,-34.5 l 2.25,0.1875 z m 32.0625,30.46875 q -10.0313,16.5 -25.3125,17.90625 l -0.5625,-1.78125 q 6.75,-1.59375 11.4375,-5.25 4.7812,-3.75 11.625,-13.125 z"
           style="font-style:normal;font-variant:normal;font-weight:normal;font-stretch:normal;font-size:192px;font-family:'French Script MT';-inkscape-font-specification:'French Script MT';stroke-width:3.13237405px"
           id="path4583"
           inkscape:connector-curvature="0" />
      </g>
    </g>
  </g>
</svg>
